<svg width="96" height="96" viewBox="0 0 96 96" xmlns="http://www.w3.org/2000/svg">
  <!-- Background circle -->
  <circle cx="48" cy="48" r="48" fill="#0ea5e9"/>
  
  <!-- Speech bubble for notifications -->
  <path d="M16 24 C16 19 20 15 25 15 L71 15 C76 15 80 19 80 24 L80 52 C80 57 76 61 71 61 L35 61 L16 76 Z" fill="white" opacity="0.95"/>
  
  <!-- SP Letters -->
  <text x="48" y="45" font-family="Arial, sans-serif" font-size="18" font-weight="bold" text-anchor="middle" fill="#0ea5e9">SP</text>
  
  <!-- Small notification indicator -->
  <circle cx="72" cy="24" r="8" fill="#ef4444"/>
  <circle cx="72" cy="24" r="6" fill="white"/>
  <text x="72" y="27" font-family="Arial, sans-serif" font-size="8" font-weight="bold" text-anchor="middle" fill="#ef4444">!</text>
  
  <!-- Decorative dots -->
  <circle cx="30" cy="35" r="1.5" fill="#0ea5e9" opacity="0.4"/>
  <circle cx="35" cy="32" r="1" fill="#0ea5e9" opacity="0.3"/>
  <circle cx="40" cy="34" r="1.2" fill="#0ea5e9" opacity="0.35"/>
  
  <circle cx="66" cy="35" r="1.5" fill="#0ea5e9" opacity="0.4"/>
  <circle cx="61" cy="32" r="1" fill="#0ea5e9" opacity="0.3"/>
  <circle cx="56" cy="34" r="1.2" fill="#0ea5e9" opacity="0.35"/>
</svg>