<svg width="1242" height="2688" viewBox="0 0 1242 2688" xmlns="http://www.w3.org/2000/svg">
  <!-- Background -->
  <rect width="1242" height="2688" fill="#0ea5e9"/>
  
  <!-- Gradient overlay for depth -->
  <defs>
    <linearGradient id="grad1" x1="0%" y1="0%" x2="100%" y2="100%">
      <stop offset="0%" style="stop-color:#0ea5e9;stop-opacity:1" />
      <stop offset="100%" style="stop-color:#0284c7;stop-opacity:1" />
    </linearGradient>
    <radialGradient id="glow" cx="50%" cy="50%" r="60%">
      <stop offset="0%" style="stop-color:white;stop-opacity:0.1" />
      <stop offset="100%" style="stop-color:white;stop-opacity:0" />
    </radialGradient>
  </defs>
  
  <!-- Background gradient -->
  <rect width="1242" height="2688" fill="url(#grad1)"/>
  
  <!-- Center glow effect -->
  <ellipse cx="621" cy="1344" rx="400" ry="600" fill="url(#glow)"/>
  
  <!-- Main speech bubble centered -->
  <path d="M321 1044 C321 988 365 932 421 932 L821 932 C877 932 921 988 921 1044 L921 1244 C921 1300 877 1356 821 1356 L553 1356 L421 1456 Z" fill="white" opacity="0.95"/>
  
  <!-- SP Letters in speech bubble -->
  <text x="621" y="1180" font-family="Arial, sans-serif" font-size="120" font-weight="bold" text-anchor="middle" fill="#0ea5e9">SP</text>
  
  <!-- App name below -->
  <text x="621" y="1650" font-family="Arial, sans-serif" font-size="48" font-weight="300" text-anchor="middle" fill="white" opacity="0.9">Straat-Praat</text>
  <text x="621" y="1720" font-family="Arial, sans-serif" font-size="28" font-weight="300" text-anchor="middle" fill="white" opacity="0.7">Learn Dutch Street Slang</text>
  
  <!-- Decorative elements - floating speech bubbles -->
  <ellipse cx="200" cy="800" rx="40" ry="30" fill="white" opacity="0.2"/>
  <ellipse cx="1042" cy="900" rx="35" ry="25" fill="white" opacity="0.15"/>
  <ellipse cx="150" cy="1800" rx="30" ry="20" fill="white" opacity="0.1"/>
  <ellipse cx="1100" cy="1900" rx="45" ry="35" fill="white" opacity="0.12"/>
  
  <!-- Small connecting dots -->
  <circle cx="300" cy="600" r="4" fill="white" opacity="0.3"/>
  <circle cx="320" cy="620" r="3" fill="white" opacity="0.25"/>
  <circle cx="340" cy="580" r="2" fill="white" opacity="0.2"/>
  
  <circle cx="942" cy="2000" r="4" fill="white" opacity="0.3"/>
  <circle cx="922" cy="2020" r="3" fill="white" opacity="0.25"/>
  <circle cx="902" cy="1980" r="2" fill="white" opacity="0.2"/>
</svg>